<?xml version="1.0" encoding="UTF-8"?>
<svg width="24px" height="24px" viewBox="0 0 24 24" version="1.1" xmlns="http://www.w3.org/2000/svg" xmlns:xlink="http://www.w3.org/1999/xlink">
    <!-- Generator: Sketch 63.1 (92452) - https://sketch.com -->
    <title>Fill 1</title>
    <desc>Created with Sketch.</desc>
    <g id="Aanbetaling" stroke="none" stroke-width="1" fill="none" fill-rule="evenodd">
        <path d="M11.6767234,15.2081141 C13.8817234,15.1931141 15.4477234,13.6491141 15.4077234,11.5291141 C15.3697234,9.5171141 13.5807234,7.7941141 11.5647234,7.8271141 C9.56872341,7.8601141 7.78972341,9.6641141 7.80472341,11.6411141 C7.81972341,13.6831141 9.49172341,15.2231141 11.6767234,15.2081141 M11.7307234,17.8661141 C9.91972341,17.8941141 9.65972341,18.1191141 9.53572341,19.6521141 C9.50572341,20.0291141 9.59672341,20.4211141 9.53172341,20.7891141 C9.39672341,21.5501141 8.91272341,21.9921141 8.12772341,22.0521141 C7.45472341,22.1041141 6.96172341,21.8371141 6.63572341,21.2241141 C6.25872341,20.5171141 6.33572341,19.9011141 6.94772341,19.3871141 C7.17672341,19.1951141 7.51572341,19.1251141 7.72272341,18.9171141 C8.33072341,18.3071141 8.33572341,17.3641141 7.78372341,16.6631141 C6.44572341,14.9671141 5.58072341,14.8021141 3.73372341,15.9731141 C3.29572341,16.2511141 2.97572341,16.7081141 2.57072341,17.0441141 C1.89672341,17.6041141 1.07972341,17.6541141 0.494723412,17.0801141 C0.135723412,16.7291141 -0.0732765876,15.9721141 0.0237234124,15.4681141 C0.177723412,14.6641141 0.885723412,14.0991141 1.72172341,14.3341141 C2.46172341,14.5421141 3.01372341,14.3991141 3.65372341,14.1061141 C5.42972341,13.2921141 5.43972341,13.3131141 5.36972341,11.4141141 C5.32472341,10.1711141 5.00872341,9.7881141 3.81272341,9.6381141 C3.36372341,9.5821141 2.89872341,9.6641141 2.44472341,9.6281141 C1.66472341,9.5681141 1.17772341,9.0751141 0.990723412,8.3681141 C0.780723412,7.5721141 1.29072341,7.1031141 1.92272341,6.7241141 C2.66072341,6.2821141 3.30272341,6.4861141 3.71072341,7.1241141 C4.26672341,7.9941141 5.07272341,8.6051141 5.93872341,8.1261141 C6.81572341,7.6411141 7.68872341,6.7831141 8.05972341,5.8811141 C8.29172341,5.3151141 7.63872341,4.3471141 7.29372341,3.6001141 C7.14472341,3.2771141 6.77672341,3.0541141 6.50172341,2.7921141 C5.88772341,2.2071141 5.58872341,1.5261141 6.10372341,0.763114102 C6.51372341,0.155114102 7.15572341,-0.177885898 7.88972341,0.0981141019 C8.66072341,0.387114102 9.29172341,1.0141141 8.97772341,1.8471141 C8.57872341,2.9061141 9.25472341,3.5791141 9.53572341,4.4071141 C9.79772341,5.1781141 10.3367234,5.3701141 11.1207234,5.3921141 C13.4297234,5.4561141 13.4287234,5.4921141 13.7187234,3.1491141 C13.8677234,1.9481141 14.7377234,1.0841141 15.6197234,1.4241141 C16.1197234,1.6161141 16.7187234,2.1381141 16.8207234,2.6091141 C16.9207234,3.0771141 16.6027234,3.8881141 16.2037234,4.1561141 C15.3417234,4.7361141 14.8427234,5.3811141 15.3297234,6.3331141 C16.0707234,7.7841141 17.4107234,8.4041141 18.6067234,7.8671141 C19.3407234,7.5371141 20.0177234,7.0281141 20.6297234,6.4951141 C21.2887234,5.9211141 21.9437234,5.7281141 22.6987234,6.1791141 C23.3907234,6.5921141 23.4907234,7.2791141 23.3137234,7.9871141 C23.0937234,8.8641141 22.4107234,9.3531141 21.5997234,9.0601141 C20.4607234,8.6471141 19.7367234,9.4721141 18.8237234,9.7051141 C18.1537234,9.8751141 17.9167234,10.3461141 17.8737234,11.0641141 C17.7317234,13.4431141 17.8207234,13.5791141 20.2617234,13.7491141 C21.4437234,13.8311141 22.2427234,14.4181141 22.1027234,15.3011141 C22.0197234,15.8271141 21.6257234,16.5041141 21.1817234,16.7161141 C20.7577234,16.9191141 20.0247234,16.7321141 19.5447234,16.4861141 C19.1117234,16.2641141 18.9097234,15.5911141 18.4777234,15.3691141 C17.7807234,15.0111141 16.9997234,14.9681141 16.4297234,15.7301141 C15.8807234,16.4631141 14.6127234,16.8911141 15.2947234,18.1581141 C15.7537234,19.0111141 16.2717234,19.8451141 16.8617234,20.6121141 C17.3817234,21.2871141 17.6337234,21.9391141 17.1457234,22.6891141 C16.7207234,23.3431141 16.0687234,23.5601141 15.3517234,23.2541141 C14.5947234,22.9311141 13.9767234,22.3141141 14.3037234,21.4791141 C14.6477234,20.6001141 14.1477234,20.0401141 13.9267234,19.3421141 C13.5447234,18.1291141 12.8227234,17.5581141 11.7307234,17.8661141" id="Fill-1" fill="#58666e"></path>
    </g>
</svg>