<?xml version="1.0" encoding="UTF-8" standalone="no"?>
<svg width="17px" height="13px" viewBox="0 0 17 13" version="1.1" xmlns="http://www.w3.org/2000/svg" xmlns:xlink="http://www.w3.org/1999/xlink">
    <!-- Generator: Sketch 41.2 (35397) - http://www.bohemiancoding.com/sketch -->
    <title>Combined Shape</title>
    <desc>Created with Sketch.</desc>
    <defs></defs>
    <g id="Page-1" stroke="none" stroke-width="1" fill="none" fill-rule="evenodd">
        <path d="M14,5 L3,5 L3,12.0046024 C3,12.5543453 2.55613518,13 2,13 C1.44771525,13 1,12.5443356 1,12.0046024 L1,5 C0.447697432,5 6.97725541e-13,4.55613518 4.48370778e-13,4 L0,3 L1.4428885,0.835667253 C1.75057268,0.374140973 2.44748943,0 2.99850233,0 L14.0014977,0 C14.5529553,0 15.2452393,0.367858887 15.5571115,0.835667253 L17,3 L17,4 C17,4.55228475 16.5452911,5 16.0000398,5 L16,12.0046024 C16,12.5543453 15.5561352,13 15,13 C14.4477153,13 14,12.5443356 14,12.0046024 L14,5 Z M3.5,5.62489747 L4.5,5.62489747 L4.5,8.501992 C4.5,8.77703422 4.26806641,9 4,9 C3.72385763,9 3.5,8.7785501 3.5,8.501992 L3.5,5.62489747 Z M12.5,5.62489747 L13.5,5.62489747 L13.5,8.501992 C13.5,8.77703422 13.2680664,9 13,9 C12.7238576,9 12.5,8.7785501 12.5,8.501992 L12.5,5.62489747 Z" id="Combined-Shape" fill="#5E5E5E"></path>
    </g>
</svg>